<?xml version="1.0" encoding="UTF-8" standalone="no"?>
<svg
   viewBox="0 0 16 16"
   width="16px"
   height="16px"
   version="1.1"
   id="svg6"
   sodipodi:docname="add_text_part.svg"
   inkscape:version="1.2.2 (b0a8486541, 2022-12-01)"
   xmlns:inkscape="http://www.inkscape.org/namespaces/inkscape"
   xmlns:sodipodi="http://sodipodi.sourceforge.net/DTD/sodipodi-0.dtd"
   xmlns="http://www.w3.org/2000/svg"
   xmlns:svg="http://www.w3.org/2000/svg">
  <defs
     id="defs10" />
  <sodipodi:namedview
     id="namedview8"
     pagecolor="#ffffff"
     bordercolor="#000000"
     borderopacity="0.25"
     inkscape:showpageshadow="2"
     inkscape:pageopacity="0.0"
     inkscape:pagecheckerboard="0"
     inkscape:deskcolor="#d1d1d1"
     showgrid="false"
     inkscape:zoom="46.4375"
     inkscape:cx="7.9892328"
     inkscape:cy="7.9892328"
     inkscape:window-width="1920"
     inkscape:window-height="1007"
     inkscape:window-x="0"
     inkscape:window-y="0"
     inkscape:window-maximized="1"
     inkscape:current-layer="svg6" />
  <path
     fill="#808080"
     d="M 6,11 V 7.5 H 5 V 11 Z M 5,13.5 7.53125,16 H 12 V 7 h 4 V 2.5 L 13.625,0 H 1 V 4.7128906 L 3.419922,7 H 7 v 7.257812 l -1,-1 z M 2.695312,1 h 10.580079 l 1,1 H 3.695312 Z M 2,1.703125 l 1,1 V 5.40625 l -1,-1 z M 4,3 h 11 v 3 h -4 v 9 H 8 V 6 H 4 Z"
     id="path2" />
  <path
     fill="#ed6b21"
     d="M 3.5,9 C 3,9 3,9.5 3,10 v 2 H 1 C 0.5,12 0,12 0,12.5 0,13 0.5,13 1,13 h 2 v 2 c 0,0.5 0,1 0.5,1 C 4,16 4,15.5 4,15 V 13 H 6 C 6.5,13 7,13 7,12.5 7,12 6.5,12 6,12 H 4 V 10 C 4,9.5 4,9 3.5,9 Z"
     id="path4"
     style="fill:#bf0021;fill-opacity:1" />
</svg>
