<?xml version="1.0" encoding="UTF-8" standalone="no"?>
<!-- Generator: Adobe Illustrator 23.0.3, SVG Export Plug-In . SVG Version: 6.00 Build 0)  -->

<svg
   version="1.0"
   id="Layer_1"
   x="0px"
   y="0px"
   viewBox="0 0 16 16"
   enable-background="new 0 0 16 16"
   xml:space="preserve"
   sodipodi:docname="browse.svg"
   inkscape:version="1.2.2 (b0a8486541, 2022-12-01)"
   xmlns:inkscape="http://www.inkscape.org/namespaces/inkscape"
   xmlns:sodipodi="http://sodipodi.sourceforge.net/DTD/sodipodi-0.dtd"
   xmlns="http://www.w3.org/2000/svg"
   xmlns:svg="http://www.w3.org/2000/svg"><defs
   id="defs8" /><sodipodi:namedview
   id="namedview6"
   pagecolor="#ffffff"
   bordercolor="#000000"
   borderopacity="0.25"
   inkscape:showpageshadow="2"
   inkscape:pageopacity="0.0"
   inkscape:pagecheckerboard="0"
   inkscape:deskcolor="#d1d1d1"
   showgrid="false"
   inkscape:zoom="46.4375"
   inkscape:cx="7.9892328"
   inkscape:cy="7.9892328"
   inkscape:window-width="1920"
   inkscape:window-height="1007"
   inkscape:window-x="0"
   inkscape:window-y="0"
   inkscape:window-maximized="1"
   inkscape:current-layer="Layer_1" />
<g
   id="browse">
	<path
   fill="#ED6B21"
   d="M8.49,2.43c-1.71-1.71-4.49-1.71-6.2,0s-1.71,4.49,0,6.2c1.59,1.59,4.1,1.7,5.82,0.34l1.48,1.48   c0,0-0.36,0.36,0,0.73s3.65,3.65,3.65,3.65s0.36,0.36,0.73,0c0.36-0.36,0.73-0.73,0.73-0.73s0.36-0.36,0-0.73s-3.65-3.65-3.65-3.65   c-0.36-0.36-0.73,0-0.73,0L8.83,8.25C10.19,6.52,10.08,4.02,8.49,2.43z M8.1,8.25c-1.5,1.5-3.93,1.5-5.43,0s-1.5-3.93,0-5.43   s3.93-1.5,5.43,0S9.6,6.75,8.1,8.25z"
   id="path2"
   style="fill:#bf0000;fill-opacity:1" />
</g>
</svg>
