<?xml version="1.0" encoding="UTF-8" standalone="no"?>
<svg
   id="a"
   viewBox="0 0 16 16"
   version="1.1"
   sodipodi:docname="custom-gcode_object-info.svg"
   inkscape:version="1.2.2 (b0a8486541, 2022-12-01)"
   xmlns:inkscape="http://www.inkscape.org/namespaces/inkscape"
   xmlns:sodipodi="http://sodipodi.sourceforge.net/DTD/sodipodi-0.dtd"
   xmlns="http://www.w3.org/2000/svg"
   xmlns:svg="http://www.w3.org/2000/svg">
  <defs
     id="defs15" />
  <sodipodi:namedview
     id="namedview13"
     pagecolor="#ffffff"
     bordercolor="#000000"
     borderopacity="0.25"
     inkscape:showpageshadow="2"
     inkscape:pageopacity="0.0"
     inkscape:pagecheckerboard="0"
     inkscape:deskcolor="#d1d1d1"
     showgrid="false"
     inkscape:zoom="46.4375"
     inkscape:cx="7.9892328"
     inkscape:cy="7.9892328"
     inkscape:window-width="1920"
     inkscape:window-height="1007"
     inkscape:window-x="0"
     inkscape:window-y="0"
     inkscape:window-maximized="1"
     inkscape:current-layer="a" />
  <path
     id="b"
     d="m8.54,4.31c-.53-.19-.81-.69-.73-1.32.08-.62.55-1.01,1.21-1.01.46,0,.82.21,1,.58.1.2.1.22.1.55,0,.43-.07.61-.31.87-.24.26-.46.35-.84.36-.21,0-.33,0-.43-.04Z"
     style="fill:#bf0021;isolation:isolate;opacity:1;fill-opacity:1" />
  <path
     id="c"
     d="m6.82,13.97c-.51-.14-.74-.4-.77-.86-.02-.28-.04-.15.57-3.12.22-1.07.44-2.13.48-2.34.13-.71.07-.77-.77-.81-.21-.01-.38-.03-.39-.04s0-.09.02-.18c.04-.18,0-.16.69-.31.62-.14,1.09-.19,1.63-.2.67,0,.9.07,1.13.36.09.11.09.13.09.41,0,.25-.06.57-.39,2.17-.78,3.74-.79,3.82-.68,3.99.03.04.08.1.12.13.12.08.47.14.8.14h.3s-.02.18-.02.18c-.01.1-.04.19-.05.2-.05.03-.88.2-1.24.26-.45.07-1.31.09-1.51.03h0Z"
     style="fill:#bf0021;isolation:isolate;opacity:1;fill-opacity:1" />
  <polyline
     points="14.5 3.5 14.5 1.5 12.5 1.5"
     style="fill:none; stroke:#808080; stroke-linecap:round; stroke-miterlimit:10;"
     id="polyline4" />
  <polyline
     points="3.5 1.5 1.5 1.5 1.5 3.5"
     style="fill:none; stroke:#808080; stroke-linecap:round; stroke-miterlimit:10;"
     id="polyline6" />
  <polyline
     points="1.5 12.5 1.5 14.5 3.5 14.5"
     style="fill:none; stroke:#808080; stroke-linecap:round; stroke-miterlimit:10;"
     id="polyline8" />
  <polyline
     points="12.5 14.5 14.5 14.5 14.5 12.5"
     style="fill:none; stroke:#808080; stroke-linecap:round; stroke-miterlimit:10;"
     id="polyline10" />
</svg>
