<?xml version="1.0" encoding="UTF-8" standalone="no"?>
<!-- Generator: Adobe Illustrator 23.0.2, SVG Export Plug-In . SVG Version: 6.00 Build 0)  -->

<svg
   version="1.0"
   id="Layer_1"
   x="0px"
   y="0px"
   viewBox="0 0 128 128"
   enable-background="new 0 0 128 128"
   xml:space="preserve"
   sodipodi:docname="cut.svg"
   inkscape:version="1.2.2 (b0a8486541, 2022-12-01)"
   xmlns:inkscape="http://www.inkscape.org/namespaces/inkscape"
   xmlns:sodipodi="http://sodipodi.sourceforge.net/DTD/sodipodi-0.dtd"
   xmlns="http://www.w3.org/2000/svg"
   xmlns:svg="http://www.w3.org/2000/svg"><defs
   id="defs20" /><sodipodi:namedview
   id="namedview18"
   pagecolor="#ffffff"
   bordercolor="#000000"
   borderopacity="0.25"
   inkscape:showpageshadow="2"
   inkscape:pageopacity="0.0"
   inkscape:pagecheckerboard="0"
   inkscape:deskcolor="#d1d1d1"
   showgrid="false"
   inkscape:zoom="5.8046875"
   inkscape:cx="63.913863"
   inkscape:cy="63.913863"
   inkscape:window-width="1920"
   inkscape:window-height="1007"
   inkscape:window-x="0"
   inkscape:window-y="0"
   inkscape:window-maximized="1"
   inkscape:current-layer="Layer_1" />
<g
   id="cut">
	<g
   id="g4">
		<path
   fill="#ED6B21"
   d="M118.12,65.5h-10c-0.83,0-1.5-0.67-1.5-1.5s0.67-1.5,1.5-1.5h10c0.83,0,1.5,0.67,1.5,1.5    S118.95,65.5,118.12,65.5z M98.12,65.5h-10c-0.83,0-1.5-0.67-1.5-1.5s0.67-1.5,1.5-1.5h10c0.83,0,1.5,0.67,1.5,1.5    S98.95,65.5,98.12,65.5z M78.12,65.5h-10c-0.83,0-1.5-0.67-1.5-1.5s0.67-1.5,1.5-1.5h10c0.83,0,1.5,0.67,1.5,1.5    S78.95,65.5,78.12,65.5z M58.12,65.5h-10c-0.83,0-1.5-0.67-1.5-1.5s0.67-1.5,1.5-1.5h10c0.83,0,1.5,0.67,1.5,1.5    S58.95,65.5,58.12,65.5z M38.12,65.5h-10c-0.83,0-1.5-0.67-1.5-1.5s0.67-1.5,1.5-1.5h10c0.83,0,1.5,0.67,1.5,1.5    S38.95,65.5,38.12,65.5z M18.12,65.5h-10c-0.83,0-1.5-0.67-1.5-1.5s0.67-1.5,1.5-1.5h10c0.83,0,1.5,0.67,1.5,1.5    S18.95,65.5,18.12,65.5z"
   id="path2"
   style="fill:#bf0021;fill-opacity:1" />
	</g>
	<g
   id="g14">
		<g
   id="g8">
			<path
   fill="#FFFFFF"
   d="M108.79,51.6H19.21c-1.93,0-3.5-1.57-3.5-3.5V10.12c0-1.93,1.57-3.5,3.5-3.5h89.57     c1.93,0,3.5,1.57,3.5,3.5V48.1C112.29,50.03,110.71,51.6,108.79,51.6z M19.21,9.62c-0.27,0-0.5,0.23-0.5,0.5V48.1     c0,0.27,0.23,0.5,0.5,0.5h89.57c0.27,0,0.5-0.23,0.5-0.5V10.12c0-0.27-0.23-0.5-0.5-0.5H19.21z"
   id="path6" />
		</g>
		<g
   id="g12">
			<path
   fill="#FFFFFF"
   d="M108.79,121.38H19.21c-1.93,0-3.5-1.57-3.5-3.5V79.4c0-1.93,1.57-3.5,3.5-3.5h89.57     c1.93,0,3.5,1.57,3.5,3.5v38.49C112.29,119.81,110.71,121.38,108.79,121.38z M19.21,78.9c-0.27,0-0.5,0.23-0.5,0.5v38.49     c0,0.27,0.23,0.5,0.5,0.5h89.57c0.27,0,0.5-0.23,0.5-0.5V79.4c0-0.27-0.23-0.5-0.5-0.5H19.21z"
   id="path10" />
		</g>
	</g>
</g>
</svg>
