<?xml version="1.0" encoding="UTF-8" standalone="no"?>
<!-- Generator: Adobe Illustrator 27.0.1, SVG Export Plug-In . SVG Version: 6.00 Build 0)  -->

<svg
   version="1.1"
   id="Layer_1"
   x="0px"
   y="0px"
   width="16px"
   height="16px"
   viewBox="0 0 16 16"
   enable-background="new 0 0 16 16"
   xml:space="preserve"
   sodipodi:docname="cut_connectors.svg"
   inkscape:version="1.2.2 (b0a8486541, 2022-12-01)"
   xmlns:inkscape="http://www.inkscape.org/namespaces/inkscape"
   xmlns:sodipodi="http://sodipodi.sourceforge.net/DTD/sodipodi-0.dtd"
   xmlns="http://www.w3.org/2000/svg"
   xmlns:svg="http://www.w3.org/2000/svg"><defs
   id="defs13" /><sodipodi:namedview
   id="namedview11"
   pagecolor="#ffffff"
   bordercolor="#000000"
   borderopacity="0.25"
   inkscape:showpageshadow="2"
   inkscape:pageopacity="0.0"
   inkscape:pagecheckerboard="0"
   inkscape:deskcolor="#d1d1d1"
   showgrid="false"
   inkscape:zoom="46.4375"
   inkscape:cx="7.9892328"
   inkscape:cy="7.9892328"
   inkscape:window-width="1920"
   inkscape:window-height="1007"
   inkscape:window-x="0"
   inkscape:window-y="0"
   inkscape:window-maximized="1"
   inkscape:current-layer="Layer_1" />
<path
   fill="#ED6B21"
   d="M7.2122064,10.8825388H5.473033c-0.6128426,0-1.1075444-0.4947023-1.1075444-1.1075449  S4.8601904,8.667449,5.473033,8.667449h1.7391734c0.6128426,0,1.1075444,0.4947023,1.1075444,1.1075449  S7.8250437,10.8825388,7.2122064,10.8825388z"
   id="path2"
   style="fill:#bf0021;fill-opacity:1" />
<g
   id="g8">
	<path
   fill="#808080"
   d="M10.98001,15c-0.289978,0-0.5199585-0.2299805-0.5199585-0.5199585v-0.5922852v-0.3327637   c0-0.289978-0.2300415-0.5200195-0.5200195-0.5200195H2.7452075c-0.289978,0-0.5200195,0.2300415-0.5200195,0.5200195v0.3327637   v0.5922852C2.225188,14.7700195,1.9952077,15,1.7052296,15c-0.2900391,0-0.5200195-0.2299805-0.5200195-0.5199585v-0.5922852   v-0.3327637c0-0.8699951,0.710022-1.5700073,1.5700072-1.5700073h7.1748047c0.8599854,0,1.5700073,0.7000122,1.5700073,1.5700073   v0.3327637v0.5922852C11.5000296,14.7700195,11.2700491,15,10.98001,15z"
   id="path4" />
	<path
   fill="#808080"
   d="M9.9300222,7.5650024H2.7552173c-0.8599852,0-1.5700072-0.7000122-1.5700072-1.5700073V5.6622314V5.0699463   c0-0.289978,0.2299805-0.5199585,0.5200195-0.5199585c0.289978,0,0.5199584,0.2299805,0.5199584,0.5199585v0.5922852v0.3327637   c0,0.289978,0.2300415,0.5200195,0.5200195,0.5200195H9.940032c0.289978,0,0.5200195-0.2300415,0.5200195-0.5200195V5.6622314   V5.0699463c0-0.289978,0.2299805-0.5199585,0.5199585-0.5199585c0.2900391,0,0.5200195,0.2299805,0.5200195,0.5199585v0.5922852   v0.3327637C11.5000296,6.8649902,10.7900076,7.5650024,9.9300222,7.5650024z"
   id="path6" />
</g>
</svg>
