<?xml version="1.0" encoding="UTF-8" standalone="no"?>
<!-- Generator: Adobe Illustrator 23.0.3, SVG Export Plug-In . SVG Version: 6.00 Build 0)  -->

<svg
   version="1.0"
   id="Layer_1"
   x="0px"
   y="0px"
   viewBox="0 0 16 16"
   enable-background="new 0 0 16 16"
   xml:space="preserve"
   sodipodi:docname="delete.svg"
   inkscape:version="1.2.2 (b0a8486541, 2022-12-01)"
   xmlns:inkscape="http://www.inkscape.org/namespaces/inkscape"
   xmlns:sodipodi="http://sodipodi.sourceforge.net/DTD/sodipodi-0.dtd"
   xmlns="http://www.w3.org/2000/svg"
   xmlns:svg="http://www.w3.org/2000/svg"><defs
   id="defs22" /><sodipodi:namedview
   id="namedview20"
   pagecolor="#ffffff"
   bordercolor="#000000"
   borderopacity="0.25"
   inkscape:showpageshadow="2"
   inkscape:pageopacity="0.0"
   inkscape:pagecheckerboard="0"
   inkscape:deskcolor="#d1d1d1"
   showgrid="false"
   inkscape:zoom="46.4375"
   inkscape:cx="7.9892328"
   inkscape:cy="7.9892328"
   inkscape:window-width="1920"
   inkscape:window-height="1007"
   inkscape:window-x="0"
   inkscape:window-y="0"
   inkscape:window-maximized="1"
   inkscape:current-layer="Layer_1" />
<g
   id="delete">
	<g
   id="g4">
		<path
   fill="#ED6B21"
   d="M13,10c0-1.1-0.9-2-2-2H5c-1.1,0-2,0.9-2,2v3c0,1.1,0.9,2,2,2h6c1.1,0,2-0.9,2-2V10z"
   id="path2"
   style="fill:#bf0021;fill-opacity:1" />
	</g>
	<g
   id="g8">
		<path
   fill="#808080"
   d="M12,5.01c0.25,0,0.47,0.09,0.62,0.26c0.15,0.17,0.22,0.4,0.2,0.64l-0.64,7.01C12.13,13.49,11.58,14,11,14    H5c-0.58,0-1.13-0.51-1.19-1.08L3.18,5.91c-0.02-0.25,0.05-0.47,0.2-0.64C3.53,5.1,3.75,5.01,4,5.01H12 M12,4.01H4    c-1.1,0-1.92,0.9-1.82,1.99l0.64,7.01C2.92,14.1,3.9,15,5,15h6c1.1,0,2.08-0.9,2.18-1.99L13.82,6C13.92,4.91,13.1,4.01,12,4.01    L12,4.01z"
   id="path6" />
	</g>
	<g
   id="g12">
		<path
   fill="#808080"
   d="M13,3.5H3C2.72,3.5,2.5,3.28,2.5,3S2.72,2.5,3,2.5h10c0.28,0,0.5,0.22,0.5,0.5S13.28,3.5,13,3.5z"
   id="path10" />
	</g>
	<g
   id="g16">
		<path
   fill="#808080"
   d="M10,2.5H6C5.72,2.5,5.5,2.28,5.5,2S5.72,1.5,6,1.5h4c0.28,0,0.5,0.22,0.5,0.5S10.28,2.5,10,2.5z"
   id="path14" />
	</g>
</g>
</svg>
