<?xml version="1.0" encoding="UTF-8" standalone="no"?>
<!-- Generator: Adobe Illustrator 23.0.1, SVG Export Plug-In . SVG Version: 6.00 Build 0)  -->

<svg
   version="1.0"
   id="Layer_1"
   x="0px"
   y="0px"
   viewBox="0 0 128 128"
   enable-background="new 0 0 128 128"
   xml:space="preserve"
   sodipodi:docname="delete_all_menu.svg"
   inkscape:version="1.2.2 (b0a8486541, 2022-12-01)"
   xmlns:inkscape="http://www.inkscape.org/namespaces/inkscape"
   xmlns:sodipodi="http://sodipodi.sourceforge.net/DTD/sodipodi-0.dtd"
   xmlns="http://www.w3.org/2000/svg"
   xmlns:svg="http://www.w3.org/2000/svg"><defs
   id="defs28" /><sodipodi:namedview
   id="namedview26"
   pagecolor="#ffffff"
   bordercolor="#000000"
   borderopacity="0.25"
   inkscape:showpageshadow="2"
   inkscape:pageopacity="0.0"
   inkscape:pagecheckerboard="0"
   inkscape:deskcolor="#d1d1d1"
   showgrid="false"
   inkscape:zoom="5.8046875"
   inkscape:cx="63.913863"
   inkscape:cy="63.913863"
   inkscape:window-width="1920"
   inkscape:window-height="1007"
   inkscape:window-x="0"
   inkscape:window-y="0"
   inkscape:window-maximized="1"
   inkscape:current-layer="Layer_1" />
<g
   id="DELETE_ALL_1_">
	<path
   fill="#808080"
   d="M103.52,43.87l-13.31,69.97H37.79L24.48,43.87H103.52 M108.77,37.87H19.23c-1.1,0-1.83,0.88-1.63,1.96   l14.84,78.04c0.21,1.08,1.27,1.96,2.37,1.96h58.36c1.1,0,2.17-0.88,2.37-1.96l14.84-78.04C110.6,38.75,109.87,37.87,108.77,37.87   L108.77,37.87z"
   id="path2" />
	<g
   id="g6">
		<path
   fill="#ED6B21"
   d="M89.38,22.97c-1.1,0-2-0.9-2-2v-10.9c0-1.1-0.9-2-2-2H42.62c-1.1,0-2,0.9-2,2v10.9c0,1.1-0.9,2-2,2H19.23    c-1.1,0-2,0.9-2,2v3.45c0,1.1,0.9,2,2,2h89.54c1.1,0,2-0.9,2-2v-3.45c0-1.1-0.9-2-2-2H89.38z M79.59,20.97c0,1.1-0.9,2-2,2H50.41    c-1.1,0-2-0.9-2-2v-3.45c0-1.1,0.9-2,2-2h27.18c1.1,0,2,0.9,2,2V20.97z"
   id="path4"
   style="fill:#bf0021;fill-opacity:1" />
	</g>
	<g
   id="g10">
		<path
   fill="#808080"
   d="M93.17,73.5H34.83c-0.83,0-1.5-0.67-1.5-1.5s0.67-1.5,1.5-1.5h58.34c0.83,0,1.5,0.67,1.5,1.5    S94,73.5,93.17,73.5z"
   id="path8" />
	</g>
	<g
   id="g14">
		<path
   fill="#808080"
   d="M90.14,89.45H37.96c-0.83,0-1.5-0.67-1.5-1.5s0.67-1.5,1.5-1.5h52.18c0.83,0,1.5,0.67,1.5,1.5    S90.97,89.45,90.14,89.45z"
   id="path12" />
	</g>
	<g
   id="g18">
		<path
   fill="#808080"
   d="M87.1,105.4H40.9c-0.83,0-1.5-0.67-1.5-1.5s0.67-1.5,1.5-1.5h46.2c0.83,0,1.5,0.67,1.5,1.5    S87.93,105.4,87.1,105.4z"
   id="path16" />
	</g>
	<g
   id="g22">
		<path
   fill="#808080"
   d="M96.2,57.56H31.8c-0.83,0-1.5-0.67-1.5-1.5s0.67-1.5,1.5-1.5h64.4c0.83,0,1.5,0.67,1.5,1.5    S97.03,57.56,96.2,57.56z"
   id="path20" />
	</g>
</g>
</svg>
