<?xml version="1.0" encoding="UTF-8" standalone="no"?>
<!-- Generator: Adobe Illustrator 27.2.0, SVG Export Plug-In . SVG Version: 6.00 Build 0)  -->

<svg
   version="1.1"
   id="Layer_1"
   x="0px"
   y="0px"
   width="16px"
   height="16px"
   viewBox="0 0 16 16"
   style="enable-background:new 0 0 16 16;"
   xml:space="preserve"
   sodipodi:docname="dowel.svg"
   inkscape:version="1.2.2 (b0a8486541, 2022-12-01)"
   xmlns:inkscape="http://www.inkscape.org/namespaces/inkscape"
   xmlns:sodipodi="http://sodipodi.sourceforge.net/DTD/sodipodi-0.dtd"
   xmlns="http://www.w3.org/2000/svg"
   xmlns:svg="http://www.w3.org/2000/svg"><defs
   id="defs17" /><sodipodi:namedview
   id="namedview15"
   pagecolor="#ffffff"
   bordercolor="#000000"
   borderopacity="0.25"
   inkscape:showpageshadow="2"
   inkscape:pageopacity="0.0"
   inkscape:pagecheckerboard="0"
   inkscape:deskcolor="#d1d1d1"
   showgrid="false"
   inkscape:zoom="46.4375"
   inkscape:cx="7.9784657"
   inkscape:cy="7.9892328"
   inkscape:window-width="1920"
   inkscape:window-height="1007"
   inkscape:window-x="0"
   inkscape:window-y="0"
   inkscape:window-maximized="1"
   inkscape:current-layer="Layer_1" />
<g
   id="g4">
	<path
   fill="#ED6B21"
   d="M9,12H7c-0.5522847,0-1-0.4477148-1-1V5c0-0.5522847,0.4477153-1,1-1h2c0.5522852,0,1,0.4477153,1,1v6   C10,11.5522852,9.5522852,12,9,12z"
   id="path2"
   style="fill:#bf0021;fill-opacity:1" />
</g>
<g
   id="g8">
	<path
   fill="none"
   stroke="#808080"
   stroke-linecap="round"
   stroke-miterlimit="10"
   d="M1.5,6.5h2v-3c0-1.1045694,0.8954306-2,2-2h5c1.1045694,0,2,0.8954306,2,2v3h2"
   id="path6" />
</g>
<g
   id="g12">
	<path
   fill="none"
   stroke="#808080"
   stroke-linecap="round"
   stroke-miterlimit="10"
   d="M1.5,9.5h2v3c0,1.1045694,0.8954306,2,2,2h5c1.1045694,0,2-0.8954306,2-2v-3h2"
   id="path10" />
</g>
</svg>
