<?xml version="1.0" encoding="UTF-8" standalone="no"?>
<!-- Generator: Adobe Illustrator 24.0.0, SVG Export Plug-In . SVG Version: 6.00 Build 0)  -->

<svg
   version="1.0"
   id="Layer_1"
   x="0px"
   y="0px"
   viewBox="0 0 16 16"
   enable-background="new 0 0 16 16"
   xml:space="preserve"
   sodipodi:docname="edit_gcode_f.svg"
   inkscape:version="1.2.2 (b0a8486541, 2022-12-01)"
   xmlns:inkscape="http://www.inkscape.org/namespaces/inkscape"
   xmlns:sodipodi="http://sodipodi.sourceforge.net/DTD/sodipodi-0.dtd"
   xmlns="http://www.w3.org/2000/svg"
   xmlns:svg="http://www.w3.org/2000/svg"><defs
   id="defs14" /><sodipodi:namedview
   id="namedview12"
   pagecolor="#ffffff"
   bordercolor="#000000"
   borderopacity="0.25"
   inkscape:showpageshadow="2"
   inkscape:pageopacity="0.0"
   inkscape:pagecheckerboard="0"
   inkscape:deskcolor="#d1d1d1"
   showgrid="false"
   inkscape:zoom="46.4375"
   inkscape:cx="8"
   inkscape:cy="7.9892328"
   inkscape:window-width="1920"
   inkscape:window-height="1007"
   inkscape:window-x="0"
   inkscape:window-y="0"
   inkscape:window-maximized="1"
   inkscape:current-layer="Layer_1" />
<g
   id="edit_x5F_Gcode">
	<g
   id="g4">
		<path
   fill="#ED6B21"
   d="M8,1.85l5.29,3.53V7v3.62L8,14.15l-5.29-3.53V7V5.38L8,1.85 M8,1L2,5v2v4l6,4l6-4V7V5L8,1L8,1z"
   id="path2"
   style="fill:#bf0021;fill-opacity:1" />
	</g>
	<g
   id="g8">
		<path
   fill="#ED6B21"
   d="M7.97,7.47h2.65v2.05c0,1.73-0.82,2.48-2.69,2.48S5.3,11.25,5.3,9.55V6.39c0-1.61,0.73-2.36,2.63-2.36    s2.69,0.67,2.69,2.36H9.21c0-0.74-0.18-1.11-1.28-1.11c-1.02,0-1.22,0.46-1.22,1.18v3.09c0,0.75,0.19,1.18,1.22,1.18    c1.02,0,1.38-0.43,1.38-1.21V8.75H7.97V7.47z"
   id="path6"
   style="fill:#bf0021;fill-opacity:1" />
	</g>
</g>
</svg>
