<?xml version="1.0" encoding="UTF-8" standalone="no"?>
<!-- Generator: Adobe Illustrator 24.3.0, SVG Export Plug-In . SVG Version: 6.00 Build 0)  -->

<svg
   version="1.0"
   id="exit"
   x="0px"
   y="0px"
   viewBox="0 0 100 100"
   enable-background="new 0 0 100 100"
   xml:space="preserve"
   sodipodi:docname="exit.svg"
   inkscape:version="1.2.2 (b0a8486541, 2022-12-01)"
   xmlns:inkscape="http://www.inkscape.org/namespaces/inkscape"
   xmlns:sodipodi="http://sodipodi.sourceforge.net/DTD/sodipodi-0.dtd"
   xmlns="http://www.w3.org/2000/svg"
   xmlns:svg="http://www.w3.org/2000/svg"><defs
   id="defs11" /><sodipodi:namedview
   id="namedview9"
   pagecolor="#ffffff"
   bordercolor="#000000"
   borderopacity="0.25"
   inkscape:showpageshadow="2"
   inkscape:pageopacity="0.0"
   inkscape:pagecheckerboard="0"
   inkscape:deskcolor="#d1d1d1"
   showgrid="false"
   inkscape:zoom="7.43"
   inkscape:cx="49.932705"
   inkscape:cy="49.932705"
   inkscape:window-width="1920"
   inkscape:window-height="1007"
   inkscape:window-x="0"
   inkscape:window-y="0"
   inkscape:window-maximized="1"
   inkscape:current-layer="exit" />
<path
   fill="#ED6B21"
   d="M63.4,45.46l-20-15c-2.51-1.88-6.06-1.37-7.94,1.13c-1.88,2.5-1.37,6.06,1.13,7.94l6.39,4.79H10  c-3.13,0-5.67,2.54-5.67,5.67s2.54,5.67,5.67,5.67h32.99l-6.39,4.8c-2.5,1.88-3.01,5.43-1.13,7.94c1.11,1.49,2.82,2.27,4.54,2.27  c1.18,0,2.38-0.37,3.4-1.13l20-15c1.43-1.07,2.27-2.75,2.27-4.54C65.67,48.22,64.83,46.54,63.4,45.46z"
   id="path2"
   style="fill:#bf0021;fill-opacity:1" />
<g
   id="g6">
	<path
   fill="#808080"
   d="M90,92.83H40c-1.57,0-2.83-1.27-2.83-2.83V80c0-1.57,1.27-2.83,2.83-2.83s2.83,1.27,2.83,2.83v7.17h44.33   V12.83H42.83V20c0,1.57-1.27,2.83-2.83,2.83s-2.83-1.27-2.83-2.83V10c0-1.57,1.27-2.83,2.83-2.83h50c1.57,0,2.83,1.27,2.83,2.83v80   C92.83,91.57,91.57,92.83,90,92.83z"
   id="path4" />
</g>
</svg>
