<?xml version="1.0" encoding="UTF-8" standalone="no"?>
<!-- Generator: Adobe Illustrator 23.0.3, SVG Export Plug-In . SVG Version: 6.00 Build 0)  -->

<svg
   version="1.0"
   id="Layer_1"
   x="0px"
   y="0px"
   viewBox="0 0 16 16"
   enable-background="new 0 0 16 16"
   xml:space="preserve"
   sodipodi:docname="export_gcode.svg"
   inkscape:version="1.2.2 (b0a8486541, 2022-12-01)"
   xmlns:inkscape="http://www.inkscape.org/namespaces/inkscape"
   xmlns:sodipodi="http://sodipodi.sourceforge.net/DTD/sodipodi-0.dtd"
   xmlns="http://www.w3.org/2000/svg"
   xmlns:svg="http://www.w3.org/2000/svg"><defs
   id="defs12" /><sodipodi:namedview
   id="namedview10"
   pagecolor="#ffffff"
   bordercolor="#000000"
   borderopacity="0.25"
   inkscape:showpageshadow="2"
   inkscape:pageopacity="0.0"
   inkscape:pagecheckerboard="0"
   inkscape:deskcolor="#d1d1d1"
   showgrid="false"
   inkscape:zoom="46.4375"
   inkscape:cx="7.9892328"
   inkscape:cy="7.9892328"
   inkscape:window-width="1920"
   inkscape:window-height="1007"
   inkscape:window-x="0"
   inkscape:window-y="0"
   inkscape:window-maximized="1"
   inkscape:current-layer="Layer_1" />
<g
   id="export_x5F_gcode">
	<g
   id="g4">
		<path
   fill="#808080"
   d="M5.02,7.17H9v3.08c0,2.6-1.23,3.72-4.05,3.72S1,12.85,1,10.29V5.54C1,3.12,2.09,2,4.95,2S9,3,9,5.54H6.88    c0-1.11-0.28-1.66-1.92-1.66c-1.54,0-1.83,0.69-1.83,1.77v4.65c0,1.12,0.29,1.77,1.83,1.77c1.54,0,2.08-0.65,2.08-1.82V9.09H5.02    V7.17z"
   id="path2" />
	</g>
	<path
   fill="#ED6B21"
   d="M14.65,8.35c0.19-0.19,0.19-0.51,0-0.71l-4.29-4.29C10.16,3.16,10,3.22,10,3.5v9   c0,0.27,0.16,0.34,0.35,0.15L14.65,8.35z"
   id="path6"
   style="fill:#bf0021;fill-opacity:1" />
</g>
</svg>
