<?xml version="1.0" encoding="UTF-8" standalone="no"?>
<!-- Generator: Adobe Illustrator 24.2.1, SVG Export Plug-In . SVG Version: 6.00 Build 0)  -->

<svg
   version="1.0"
   id="Layer_1"
   x="0px"
   y="0px"
   viewBox="0 0 16 16"
   enable-background="new 0 0 16 16"
   xml:space="preserve"
   sodipodi:docname="ironing.svg"
   inkscape:version="1.2.2 (b0a8486541, 2022-12-01)"
   xmlns:inkscape="http://www.inkscape.org/namespaces/inkscape"
   xmlns:sodipodi="http://sodipodi.sourceforge.net/DTD/sodipodi-0.dtd"
   xmlns="http://www.w3.org/2000/svg"
   xmlns:svg="http://www.w3.org/2000/svg"><defs
   id="defs26" /><sodipodi:namedview
   id="namedview24"
   pagecolor="#ffffff"
   bordercolor="#000000"
   borderopacity="0.25"
   inkscape:showpageshadow="2"
   inkscape:pageopacity="0.0"
   inkscape:pagecheckerboard="0"
   inkscape:deskcolor="#d1d1d1"
   showgrid="false"
   inkscape:zoom="46.4375"
   inkscape:cx="7.9892328"
   inkscape:cy="7.9892328"
   inkscape:window-width="1920"
   inkscape:window-height="1007"
   inkscape:window-x="0"
   inkscape:window-y="0"
   inkscape:window-maximized="1"
   inkscape:current-layer="Layer_1" />
<g
   id="ironing">
	<g
   id="g4">
		<path
   fill="#ED6B21"
   d="M14,9.42H2c-0.39,0-0.71-0.32-0.71-0.71C1.29,7.08,2.07,4,5,4h8c0.33,0,0.61,0.22,0.69,0.54l1,4    c0.05,0.21,0,0.44-0.13,0.61C14.42,9.32,14.22,9.42,14,9.42z M2.77,8h10.32l-0.65-2.58H5C3.39,5.42,2.91,7.03,2.77,8z"
   id="path2"
   style="fill:#bf0021;fill-opacity:1" />
	</g>
	<g
   id="g8">
		<path
   fill="#ED6B21"
   d="M13,5.42c-0.39,0-0.71-0.32-0.71-0.71v-1c0-1.18-0.99-1.29-1.3-1.29H6c-0.39,0-0.71-0.32-0.71-0.71    S5.61,1,6,1h5c1.05,0,2.61,0.68,2.7,2.52c0,0.03,0,0.06,0,0.08v1.1C13.71,5.1,13.39,5.42,13,5.42z"
   id="path6"
   style="fill:#bf0021;fill-opacity:1" />
	</g>
	<g
   id="g12">
		<path
   fill="#808080"
   d="M14.65,15H1.35C1.16,15,1,14.84,1,14.65s0.16-0.35,0.35-0.35h13.29c0.2,0,0.35,0.16,0.35,0.35    S14.84,15,14.65,15z"
   id="path10" />
	</g>
	<g
   id="g16">
		<path
   fill="#808080"
   d="M14.65,13H1.35C1.16,13,1,12.84,1,12.65s0.16-0.35,0.35-0.35h13.29c0.2,0,0.35,0.16,0.35,0.35    S14.84,13,14.65,13z"
   id="path14" />
	</g>
	<g
   id="g20">
		<path
   fill="#808080"
   d="M14.65,11H1.35C1.16,11,1,10.84,1,10.65s0.16-0.35,0.35-0.35h13.29c0.2,0,0.35,0.16,0.35,0.35    S14.84,11,14.65,11z"
   id="path18" />
	</g>
</g>
</svg>
