<?xml version="1.0" encoding="UTF-8" standalone="no"?>
<svg
   id="Layer_1"
   data-name="Layer 1"
   width="96"
   height="96"
   viewBox="0 0 96 96"
   version="1.1"
   sodipodi:docname="legend_toolchanges.svg"
   inkscape:version="1.2.2 (b0a8486541, 2022-12-01)"
   xmlns:inkscape="http://www.inkscape.org/namespaces/inkscape"
   xmlns:sodipodi="http://sodipodi.sourceforge.net/DTD/sodipodi-0.dtd"
   xmlns="http://www.w3.org/2000/svg"
   xmlns:svg="http://www.w3.org/2000/svg">
  <defs
     id="defs18" />
  <sodipodi:namedview
     id="namedview16"
     pagecolor="#ffffff"
     bordercolor="#000000"
     borderopacity="0.25"
     inkscape:showpageshadow="2"
     inkscape:pageopacity="0.0"
     inkscape:pagecheckerboard="0"
     inkscape:deskcolor="#d1d1d1"
     showgrid="false"
     inkscape:zoom="7.7395833"
     inkscape:cx="47.935397"
     inkscape:cy="47.935397"
     inkscape:window-width="1920"
     inkscape:window-height="1007"
     inkscape:window-x="0"
     inkscape:window-y="0"
     inkscape:window-maximized="1"
     inkscape:current-layer="Layer_1" />
  <rect
     id="rect4805"
     x="11.7"
     y="81.8"
     width="73.6"
     height="9.6"
     style="fill: #c1be63" />
  <polyline
     points="29.9 53.6 34.5 44.8 43.9 44.7 43.9 33.1 38.9 33.1 38.9 6.2 17 6.2 17 33.2 11.6 33.2 11.6 44.7 21 44.7 25.6 53.6"
     style="fill: #fff"
     id="polyline3" />
  <polyline
     points="68 73.2 73.3 63.3 84 63.2 84 50 78.3 50 78.3 19.7 53.3 19.7 53.3 50.2 47.1 50.2 47.1 63.2 57.9 63.2 63.1 73.2"
     style="fill:#bf0021;fill-opacity:1"
     id="polyline5" />
  <g
     id="g13">
    <path
       d="M32.3,62.6c4.5,5.9,10.4,7.8,18.5,8.4"
       style="fill: none;stroke: #fff;stroke-miterlimit: 10;stroke-width: 2.8346456692913384px"
       id="path7" />
    <polygon
       points="28.9 66.3 28.8 56.4 37.4 61.2 28.9 66.3"
       style="fill: #fff"
       id="polygon9" />
    <polygon
       points="49.2 75.8 57.9 71.2 49.6 65.9 49.2 75.8"
       style="fill: #fff"
       id="polygon11" />
  </g>
</svg>
