<?xml version="1.0" encoding="UTF-8" standalone="no"?>
<!-- Generator: Adobe Illustrator 23.0.3, SVG Export Plug-In . SVG Version: 6.00 Build 0)  -->

<svg
   version="1.0"
   id="Layer_1"
   x="0px"
   y="0px"
   viewBox="0 0 16 16"
   enable-background="new 0 0 16 16"
   xml:space="preserve"
   sodipodi:docname="lock_open.svg"
   inkscape:version="1.2.2 (b0a8486541, 2022-12-01)"
   xmlns:inkscape="http://www.inkscape.org/namespaces/inkscape"
   xmlns:sodipodi="http://sodipodi.sourceforge.net/DTD/sodipodi-0.dtd"
   xmlns="http://www.w3.org/2000/svg"
   xmlns:svg="http://www.w3.org/2000/svg"><defs
   id="defs10" /><sodipodi:namedview
   id="namedview8"
   pagecolor="#ffffff"
   bordercolor="#000000"
   borderopacity="0.25"
   inkscape:showpageshadow="2"
   inkscape:pageopacity="0.0"
   inkscape:pagecheckerboard="0"
   inkscape:deskcolor="#d1d1d1"
   showgrid="false"
   inkscape:zoom="46.4375"
   inkscape:cx="7.9892328"
   inkscape:cy="7.9892328"
   inkscape:window-width="1920"
   inkscape:window-height="1007"
   inkscape:window-x="0"
   inkscape:window-y="0"
   inkscape:window-maximized="1"
   inkscape:current-layer="Layer_1" />
<g
   id="lock_x5F_open">
	<path
   fill="none"
   stroke="#ED6B21"
   stroke-width="2"
   stroke-linecap="round"
   stroke-miterlimit="10"
   d="M4,8V4c0,0,0-2,2-2   c1,0,3,0,4,0c2,0,2,2,2,2v1"
   id="path2"
   style="stroke:#bf0021;stroke-opacity:1" />
	<path
   fill="#ED6B21"
   d="M13,8H3C2.45,8,2,8.45,2,9v5c0,0.55,0.45,1,1,1h10c0.55,0,1-0.45,1-1V9C14,8.45,13.55,8,13,8z M10,12H8.91   c-0.21,0.58-0.76,1-1.41,1C6.67,13,6,12.33,6,11.5S6.67,10,7.5,10c0.65,0,1.2,0.42,1.41,1H10V12z"
   id="path4"
   style="fill:#bf0000;fill-opacity:1" />
</g>
</svg>
