<?xml version="1.0" encoding="UTF-8" standalone="no"?>
<!-- Generator: Adobe Illustrator 23.0.3, SVG Export Plug-In . SVG Version: 6.00 Build 0)  -->

<svg
   version="1.0"
   id="Layer_1"
   x="0px"
   y="0px"
   viewBox="0 0 16 16"
   enable-background="new 0 0 16 16"
   xml:space="preserve"
   sodipodi:docname="note.svg"
   inkscape:version="1.2.2 (b0a8486541, 2022-12-01)"
   xmlns:inkscape="http://www.inkscape.org/namespaces/inkscape"
   xmlns:sodipodi="http://sodipodi.sourceforge.net/DTD/sodipodi-0.dtd"
   xmlns="http://www.w3.org/2000/svg"
   xmlns:svg="http://www.w3.org/2000/svg"><defs
   id="defs30" /><sodipodi:namedview
   id="namedview28"
   pagecolor="#ffffff"
   bordercolor="#000000"
   borderopacity="0.25"
   inkscape:showpageshadow="2"
   inkscape:pageopacity="0.0"
   inkscape:pagecheckerboard="0"
   inkscape:deskcolor="#d1d1d1"
   showgrid="false"
   inkscape:zoom="46.4375"
   inkscape:cx="7.9892328"
   inkscape:cy="7.9892328"
   inkscape:window-width="1920"
   inkscape:window-height="1007"
   inkscape:window-x="0"
   inkscape:window-y="0"
   inkscape:window-maximized="1"
   inkscape:current-layer="Layer_1" />
<g
   id="notes">
	<g
   id="g4">
		<path
   fill="#808080"
   d="M11,2l0,12l-9,0L2,2H11 M11,1H2C1.45,1,1,1.45,1,2V14c0,0.55,0.45,1,1,1H11c0.55,0,1-0.45,1-1V2    C12,1.45,11.55,1,11,1L11,1z"
   id="path2" />
	</g>
	<path
   fill="#ED6B21"
   d="M14,3L14,3c-0.55,0-1,0.45-1,1v10c0,0.55,0.45,1,1,1h0c0.55,0,1-0.45,1-1V4C15,3.45,14.55,3,14,3z"
   id="path6"
   style="fill:#bf0021;fill-opacity:1" />
	<polygon
   fill="#ED6B21"
   points="15,4 13,4 14,1  "
   id="polygon8"
   style="fill:#bf0021;fill-opacity:1" />
	<g
   id="g12">
		<line
   fill="none"
   stroke="#808080"
   stroke-linecap="round"
   stroke-miterlimit="10"
   x1="3"
   y1="4"
   x2="10"
   y2="4"
   id="line10" />
	</g>
	<g
   id="g16">
		<line
   fill="none"
   stroke="#808080"
   stroke-linecap="round"
   stroke-miterlimit="10"
   x1="3"
   y1="6"
   x2="10"
   y2="6"
   id="line14" />
	</g>
	<g
   id="g20">
		<line
   fill="none"
   stroke="#808080"
   stroke-linecap="round"
   stroke-miterlimit="10"
   x1="3"
   y1="8"
   x2="10"
   y2="8"
   id="line18" />
	</g>
	<g
   id="g24">
		<line
   fill="none"
   stroke="#808080"
   stroke-linecap="round"
   stroke-miterlimit="10"
   x1="3"
   y1="10"
   x2="7"
   y2="10"
   id="line22" />
	</g>
</g>
</svg>
