<?xml version="1.0" encoding="UTF-8" standalone="no"?>
<!-- Generator: Adobe Illustrator 23.0.3, SVG Export Plug-In . SVG Version: 6.00 Build 0)  -->

<svg
   version="1.0"
   id="Layer_1"
   x="0px"
   y="0px"
   viewBox="0 0 16 16"
   enable-background="new 0 0 16 16"
   xml:space="preserve"
   sodipodi:docname="open.svg"
   inkscape:version="1.2.2 (b0a8486541, 2022-12-01)"
   xmlns:inkscape="http://www.inkscape.org/namespaces/inkscape"
   xmlns:sodipodi="http://sodipodi.sourceforge.net/DTD/sodipodi-0.dtd"
   xmlns="http://www.w3.org/2000/svg"
   xmlns:svg="http://www.w3.org/2000/svg"><defs
   id="defs10" /><sodipodi:namedview
   id="namedview8"
   pagecolor="#ffffff"
   bordercolor="#000000"
   borderopacity="0.25"
   inkscape:showpageshadow="2"
   inkscape:pageopacity="0.0"
   inkscape:pagecheckerboard="0"
   inkscape:deskcolor="#d1d1d1"
   showgrid="false"
   inkscape:zoom="46.4375"
   inkscape:cx="8"
   inkscape:cy="7.9892328"
   inkscape:window-width="1920"
   inkscape:window-height="1007"
   inkscape:window-x="0"
   inkscape:window-y="0"
   inkscape:window-maximized="1"
   inkscape:current-layer="Layer_1" />
<g
   id="open">
	<path
   fill="#808080"
   d="M1.22,14V3c0,0,0-1,1-1s4,0,5,0s1,2,2,2s4,0,4,0s1,0,1,1v2h-1c0,0,0,0,0-1s-1-1-1-1h-3.5c-1,0-1-2-2-2   s-3.5,0-3.5,0c-1,0-1,1-1,1v9v1h1v1c0,0,0,0-1,0S1.22,14,1.22,14z"
   id="path2" />
	<path
   fill="#ED6B21"
   d="M5,6C4.45,6,3.86,6.43,3.68,6.95l-2.37,7.1C1.14,14.57,1.45,15,2,15h10c0.55,0,1.14-0.43,1.32-0.95   l2.37-7.1C15.86,6.43,15.55,6,15,6L5,6z"
   id="path4"
   style="fill:#bf0021;fill-opacity:1" />
</g>
</svg>
