<?xml version="1.0" encoding="UTF-8" standalone="no"?>
<!-- Generator: Adobe Illustrator 23.0.3, SVG Export Plug-In . SVG Version: 6.00 Build 0)  -->

<svg
   version="1.0"
   id="Layer_1"
   x="0px"
   y="0px"
   viewBox="0 0 16 16"
   enable-background="new 0 0 16 16"
   xml:space="preserve"
   sodipodi:docname="pad.svg"
   inkscape:version="1.2.2 (b0a8486541, 2022-12-01)"
   xmlns:inkscape="http://www.inkscape.org/namespaces/inkscape"
   xmlns:sodipodi="http://sodipodi.sourceforge.net/DTD/sodipodi-0.dtd"
   xmlns="http://www.w3.org/2000/svg"
   xmlns:svg="http://www.w3.org/2000/svg"><defs
   id="defs74" /><sodipodi:namedview
   id="namedview72"
   pagecolor="#ffffff"
   bordercolor="#000000"
   borderopacity="0.25"
   inkscape:showpageshadow="2"
   inkscape:pageopacity="0.0"
   inkscape:pagecheckerboard="0"
   inkscape:deskcolor="#d1d1d1"
   showgrid="false"
   inkscape:zoom="46.4375"
   inkscape:cx="7.9892328"
   inkscape:cy="7.9892328"
   inkscape:window-width="1920"
   inkscape:window-height="1007"
   inkscape:window-x="0"
   inkscape:window-y="0"
   inkscape:window-maximized="1"
   inkscape:current-layer="Layer_1" />
<g
   id="pad">
	<g
   id="g4">
		<path
   fill="#ED6B21"
   d="M14,14H2c-0.55,0-1-0.45-1-1s0.45-1,1-1h12c0.55,0,1,0.45,1,1S14.55,14,14,14z"
   id="path2"
   style="fill:#bf0021;fill-opacity:1" />
	</g>
	<g
   id="g8">
		<path
   fill="#808080"
   d="M8,8.17c-0.4,0-0.8-0.1-1.11-0.31L2.55,4.97C1.95,4.57,1.5,3.72,1.5,3V2c0-0.28,0.22-0.5,0.5-0.5    S2.5,1.72,2.5,2v1c0,0.38,0.29,0.93,0.61,1.14l4.34,2.89c0.29,0.19,0.82,0.19,1.11,0l4.34-2.89C13.21,3.93,13.5,3.38,13.5,3V2    c0-0.28,0.22-0.5,0.5-0.5s0.5,0.22,0.5,0.5v1c0,0.72-0.45,1.57-1.05,1.97L9.11,7.86C8.8,8.07,8.4,8.17,8,8.17z"
   id="path6" />
	</g>
	<g
   id="g38">
		<g
   id="g12">
			<path
   fill="#808080"
   d="M13,11.38c-0.21,0-0.38-0.17-0.38-0.38V7c0-0.21,0.17-0.38,0.38-0.38S13.38,6.79,13.38,7v4     C13.38,11.21,13.21,11.38,13,11.38z"
   id="path10" />
		</g>
		<g
   id="g16">
			
				<path
   fill="none"
   stroke="#808080"
   stroke-width="0.75"
   stroke-linecap="round"
   stroke-linejoin="round"
   stroke-miterlimit="10"
   d="     M12,7.49"
   id="path14" />
		</g>
		<g
   id="g20">
			
				<path
   fill="none"
   stroke="#808080"
   stroke-width="0.75"
   stroke-linecap="round"
   stroke-linejoin="round"
   stroke-miterlimit="10"
   d="     M12,11"
   id="path18" />
		</g>
		<g
   id="g24">
			<path
   fill="#808080"
   d="M11,11.38c-0.21,0-0.38-0.17-0.38-0.38V8.12c0-0.21,0.17-0.38,0.38-0.38s0.38,0.17,0.38,0.38V11     C11.38,11.21,11.21,11.38,11,11.38z"
   id="path22" />
		</g>
		<g
   id="g28">
			
				<path
   fill="none"
   stroke="#808080"
   stroke-width="0.75"
   stroke-linecap="round"
   stroke-linejoin="round"
   stroke-miterlimit="10"
   d="     M10,8.79"
   id="path26" />
		</g>
		<g
   id="g32">
			
				<path
   fill="none"
   stroke="#808080"
   stroke-width="0.75"
   stroke-linecap="round"
   stroke-linejoin="round"
   stroke-miterlimit="10"
   d="     M10,11"
   id="path30" />
		</g>
		<g
   id="g36">
			<path
   fill="#808080"
   d="M9,11.38c-0.21,0-0.38-0.17-0.38-0.38V9.5c0-0.21,0.17-0.38,0.38-0.38S9.38,9.29,9.38,9.5V11     C9.38,11.21,9.21,11.38,9,11.38z"
   id="path34" />
		</g>
	</g>
	<g
   id="g68">
		<g
   id="g42">
			<path
   fill="#808080"
   d="M3,11.38c-0.21,0-0.38-0.17-0.38-0.38V7c0-0.21,0.17-0.38,0.38-0.38S3.37,6.79,3.37,7v4     C3.37,11.21,3.2,11.38,3,11.38z"
   id="path40" />
		</g>
		<g
   id="g46">
			
				<path
   fill="none"
   stroke="#808080"
   stroke-width="0.75"
   stroke-linecap="round"
   stroke-linejoin="round"
   stroke-miterlimit="10"
   d="     M4,7.49"
   id="path44" />
		</g>
		<g
   id="g50">
			
				<path
   fill="none"
   stroke="#808080"
   stroke-width="0.75"
   stroke-linecap="round"
   stroke-linejoin="round"
   stroke-miterlimit="10"
   d="     M4,11"
   id="path48" />
		</g>
		<g
   id="g54">
			<path
   fill="#808080"
   d="M5,11.38c-0.21,0-0.38-0.17-0.38-0.38V8.12c0-0.21,0.17-0.38,0.38-0.38s0.38,0.17,0.38,0.38V11     C5.37,11.21,5.2,11.38,5,11.38z"
   id="path52" />
		</g>
		<g
   id="g58">
			
				<path
   fill="none"
   stroke="#808080"
   stroke-width="0.75"
   stroke-linecap="round"
   stroke-linejoin="round"
   stroke-miterlimit="10"
   d="     M6,8.79"
   id="path56" />
		</g>
		<g
   id="g62">
			
				<path
   fill="none"
   stroke="#808080"
   stroke-width="0.75"
   stroke-linecap="round"
   stroke-linejoin="round"
   stroke-miterlimit="10"
   d="     M6,11"
   id="path60" />
		</g>
		<g
   id="g66">
			<path
   fill="#808080"
   d="M7,11.38c-0.21,0-0.38-0.17-0.38-0.38V9.5c0-0.21,0.17-0.38,0.38-0.38S7.37,9.29,7.37,9.5V11     C7.37,11.21,7.2,11.38,7,11.38z"
   id="path64" />
		</g>
	</g>
</g>
</svg>
