<?xml version="1.0" encoding="UTF-8" standalone="no"?>
<!-- Generator: Adobe Illustrator 24.0.0, SVG Export Plug-In . SVG Version: 6.00 Build 0)  -->

<svg
   version="1.0"
   id="Layer_1"
   x="0px"
   y="0px"
   viewBox="0 0 16 16"
   enable-background="new 0 0 16 16"
   xml:space="preserve"
   sodipodi:docname="pause_print.svg"
   inkscape:version="1.2.2 (b0a8486541, 2022-12-01)"
   xmlns:inkscape="http://www.inkscape.org/namespaces/inkscape"
   xmlns:sodipodi="http://sodipodi.sourceforge.net/DTD/sodipodi-0.dtd"
   xmlns="http://www.w3.org/2000/svg"
   xmlns:svg="http://www.w3.org/2000/svg"><defs
   id="defs18" /><sodipodi:namedview
   id="namedview16"
   pagecolor="#ffffff"
   bordercolor="#000000"
   borderopacity="0.25"
   inkscape:showpageshadow="2"
   inkscape:pageopacity="0.0"
   inkscape:pagecheckerboard="0"
   inkscape:deskcolor="#d1d1d1"
   showgrid="false"
   inkscape:zoom="46.4375"
   inkscape:cx="7.9892328"
   inkscape:cy="7.9892328"
   inkscape:window-width="1920"
   inkscape:window-height="1007"
   inkscape:window-x="0"
   inkscape:window-y="0"
   inkscape:window-maximized="1"
   inkscape:current-layer="Layer_1" />
<g
   id="pause_x5F_print">
	<g
   id="g4">
		<path
   fill="#808080"
   d="M8,1.85l5.29,3.53V7v3.62L8,14.15l-5.29-3.53V7V5.38L8,1.85 M8,1L2,5v2v4l6,4l6-4V7V5L8,1L8,1z"
   id="path2" />
	</g>
	<g
   id="g8">
		<path
   fill="#ED6B21"
   d="M6,11.71c-0.39,0-0.71-0.32-0.71-0.71V5c0-0.39,0.32-0.71,0.71-0.71S6.71,4.61,6.71,5v6    C6.71,11.39,6.39,11.71,6,11.71z"
   id="path6"
   style="fill:#bf0021;fill-opacity:1" />
	</g>
	<g
   id="g12">
		<path
   fill="#ED6B21"
   d="M10,11.71c-0.39,0-0.71-0.32-0.71-0.71V5c0-0.39,0.32-0.71,0.71-0.71S10.71,4.61,10.71,5v6    C10.71,11.39,10.39,11.71,10,11.71z"
   id="path10"
   style="fill:#bf0021;fill-opacity:1" />
	</g>
</g>
</svg>
