<?xml version="1.0" encoding="UTF-8" standalone="no"?>
<svg
   viewBox="0 0 16 16"
   width="16px"
   height="16px"
   version="1.1"
   id="svg6"
   sodipodi:docname="question.svg"
   inkscape:version="1.2.2 (b0a8486541, 2022-12-01)"
   xmlns:inkscape="http://www.inkscape.org/namespaces/inkscape"
   xmlns:sodipodi="http://sodipodi.sourceforge.net/DTD/sodipodi-0.dtd"
   xmlns="http://www.w3.org/2000/svg"
   xmlns:svg="http://www.w3.org/2000/svg">
  <defs
     id="defs10" />
  <sodipodi:namedview
     id="namedview8"
     pagecolor="#ffffff"
     bordercolor="#000000"
     borderopacity="0.25"
     inkscape:showpageshadow="2"
     inkscape:pageopacity="0.0"
     inkscape:pagecheckerboard="0"
     inkscape:deskcolor="#d1d1d1"
     showgrid="false"
     inkscape:zoom="46.4375"
     inkscape:cx="7.9892328"
     inkscape:cy="7.9892328"
     inkscape:window-width="1920"
     inkscape:window-height="1007"
     inkscape:window-x="0"
     inkscape:window-y="0"
     inkscape:window-maximized="1"
     inkscape:current-layer="svg6" />
  <path
     fill="#ED6B21"
     d="M 6,1 C 4.5,1 3,2.5 3,4 V 5 C 3,5.5 3.5,6 4,6 4.5,6 5,5.5 5,5 V 4 C 5,3.5 5.5,3 6,3 h 4 c 0.5,0 1,0.5 1,1 v 2 c 0,0.5 -0.5,1 -1,1 H 9 C 7.5,7 6,8.5 6,10 v 1 c 0,0.5 0.5,1 1,1 0.5,0 1,-0.5 1,-1 V 10 C 8,9.5 8.5,9 9,9 h 1 c 1.5,0 3,-1.5 3,-3 l 0,-2 C 13,2.5 11.5,1 10,1 Z"
     id="path2"
     style="fill:#bf0000;fill-opacity:1" />
  <circle
     fill="#ED6B21"
     cx="7"
     cy="14"
     r="1"
     id="circle4"
     style="fill:#bf0000;fill-opacity:1" />
</svg>
