<?xml version="1.0" encoding="UTF-8" standalone="no"?>
<!-- Generator: Adobe Illustrator 24.3.0, SVG Export Plug-In . SVG Version: 6.00 Build 0)  -->

<svg
   version="1.0"
   id="Layer_1"
   x="0px"
   y="0px"
   viewBox="0 0 128 128"
   enable-background="new 0 0 128 128"
   xml:space="preserve"
   sodipodi:docname="redo_toolbar.svg"
   inkscape:version="1.2.2 (b0a8486541, 2022-12-01)"
   xmlns:inkscape="http://www.inkscape.org/namespaces/inkscape"
   xmlns:sodipodi="http://sodipodi.sourceforge.net/DTD/sodipodi-0.dtd"
   xmlns="http://www.w3.org/2000/svg"
   xmlns:svg="http://www.w3.org/2000/svg"><defs
   id="defs14" /><sodipodi:namedview
   id="namedview12"
   pagecolor="#ffffff"
   bordercolor="#000000"
   borderopacity="0.25"
   inkscape:showpageshadow="2"
   inkscape:pageopacity="0.0"
   inkscape:pagecheckerboard="0"
   inkscape:deskcolor="#d1d1d1"
   showgrid="false"
   inkscape:zoom="5.8046875"
   inkscape:cx="64.086137"
   inkscape:cy="63.913863"
   inkscape:window-width="1920"
   inkscape:window-height="1007"
   inkscape:window-x="0"
   inkscape:window-y="0"
   inkscape:window-maximized="1"
   inkscape:current-layer="Layer_1" />
<g
   id="redo">
	<g
   id="g4">
		<path
   fill="#ED6B21"
   d="M91.43,72.21c-0.73,0-1.46-0.32-1.95-0.94c-0.86-1.08-0.69-2.65,0.39-3.51L116,46.86l-26.13-20.9    c-1.08-0.86-1.25-2.44-0.39-3.51c0.86-1.08,2.43-1.25,3.51-0.39l28.57,22.86c0.59,0.47,0.94,1.19,0.94,1.95s-0.35,1.48-0.94,1.95    L92.99,71.67C92.53,72.04,91.98,72.21,91.43,72.21z"
   id="path2"
   style="fill:#bf0000;fill-opacity:1" />
	</g>
	<g
   id="g8">
		<path
   fill="#ED6B21"
   d="M80,106.5H36.57C19.44,106.5,5.5,92.56,5.5,75.43s13.94-31.07,31.07-31.07H120c1.38,0,2.5,1.12,2.5,2.5    s-1.12,2.5-2.5,2.5H36.57c-14.38,0-26.07,11.7-26.07,26.07s11.7,26.07,26.07,26.07H80c1.38,0,2.5,1.12,2.5,2.5    S81.38,106.5,80,106.5z"
   id="path6"
   style="fill:#bf0000;fill-opacity:1" />
	</g>
</g>
</svg>
