<?xml version="1.0" encoding="UTF-8" standalone="no"?>
<!-- Svg Vector Icons : http://www.onlinewebfonts.com/icon -->

<svg
   version="1.1"
   x="0px"
   y="0px"
   viewBox="0 0 1000 1000"
   enable-background="new 0 0 1000 1000"
   xml:space="preserve"
   id="svg10"
   sodipodi:docname="revert_all_.svg"
   inkscape:version="1.2.2 (b0a8486541, 2022-12-01)"
   xmlns:inkscape="http://www.inkscape.org/namespaces/inkscape"
   xmlns:sodipodi="http://sodipodi.sourceforge.net/DTD/sodipodi-0.dtd"
   xmlns="http://www.w3.org/2000/svg"
   xmlns:svg="http://www.w3.org/2000/svg"><defs
   id="defs14" /><sodipodi:namedview
   id="namedview12"
   pagecolor="#ffffff"
   bordercolor="#000000"
   borderopacity="0.25"
   inkscape:showpageshadow="2"
   inkscape:pageopacity="0.0"
   inkscape:pagecheckerboard="0"
   inkscape:deskcolor="#d1d1d1"
   showgrid="false"
   inkscape:zoom="0.743"
   inkscape:cx="500"
   inkscape:cy="499.32705"
   inkscape:window-width="1920"
   inkscape:window-height="1007"
   inkscape:window-x="0"
   inkscape:window-y="0"
   inkscape:window-maximized="1"
   inkscape:current-layer="svg10" />
<metadata
   id="metadata2"> Svg Vector Icons : http://www.onlinewebfonts.com/icon </metadata>
<g
   id="g8">
<path
   fill="#ED6B21"
   d="M59.7,265.7c0,0,89.2-138.9,230.3-213.4C431.1-22.2,605-0.7,719,71.5c114,72.3,152.4,133.2,152.4,133.2l98.2-56.5c0,0,20.3-10.2,20.3,13.5v354.5c0,0,0,31.6-23.7,20.3c-19.9-9.5-235.7-133.3-303.6-172.3c-37.3-16.8-4.5-30.4-4.5-30.4l94.8-54.7c0,0-54.1-68.3-133.2-104.5C535,130.3,455.7,125,358.6,162c-63.3,24.1-137.9,85.9-191.6,177.2L59.7,265.7L59.7,265.7z"
   id="path4"
   style="fill:#bf0000;fill-opacity:1" />
<path
   fill="#ED6B21"
   d="M940.3,734.3c0,0-89.2,138.9-230.3,213.4c-141.1,74.5-315,53.1-429-19.2c-114-72.3-152.4-133.2-152.4-133.2l-98.2,56.4c0,0-20.3,10.2-20.3-13.5V483.6c0,0,0-31.6,23.7-20.3c19.9,9.5,235.7,133.3,303.6,172.3c37.3,16.8,4.5,30.4,4.5,30.4l-94.8,54.7c0,0,54.1,68.3,133.2,104.5c84.7,44.5,164,49.8,261.1,12.8c63.3-24.1,137.9-85.9,191.6-177.2L940.3,734.3L940.3,734.3z"
   id="path6"
   style="fill:#bf0000;fill-opacity:1" /></g>
</svg>
