<?xml version="1.0" encoding="UTF-8" standalone="no"?>
<!-- Generator: Adobe Illustrator 24.3.0, SVG Export Plug-In . SVG Version: 6.00 Build 0)  -->

<svg
   version="1.0"
   id="Layer_1"
   x="0px"
   y="0px"
   viewBox="0 0 128 128"
   enable-background="new 0 0 128 128"
   xml:space="preserve"
   sodipodi:docname="search_.svg"
   inkscape:version="1.2.2 (b0a8486541, 2022-12-01)"
   xmlns:inkscape="http://www.inkscape.org/namespaces/inkscape"
   xmlns:sodipodi="http://sodipodi.sourceforge.net/DTD/sodipodi-0.dtd"
   xmlns="http://www.w3.org/2000/svg"
   xmlns:svg="http://www.w3.org/2000/svg"><defs
   id="defs22" /><sodipodi:namedview
   id="namedview20"
   pagecolor="#ffffff"
   bordercolor="#000000"
   borderopacity="0.25"
   inkscape:showpageshadow="2"
   inkscape:pageopacity="0.0"
   inkscape:pagecheckerboard="0"
   inkscape:deskcolor="#d1d1d1"
   showgrid="false"
   inkscape:zoom="5.8046875"
   inkscape:cx="64"
   inkscape:cy="63.913863"
   inkscape:window-width="1920"
   inkscape:window-height="1007"
   inkscape:window-x="0"
   inkscape:window-y="0"
   inkscape:window-maximized="1"
   inkscape:current-layer="Layer_1" />
<g
   id="search">
	<g
   id="g4">
		<path
   fill="#ED6B21"
   d="M52,98.5C26.36,98.5,5.5,77.64,5.5,52C5.5,26.36,26.36,5.5,52,5.5c25.64,0,46.5,20.86,46.5,46.5    C98.5,77.64,77.64,98.5,52,98.5z M52,10.5c-22.88,0-41.5,18.62-41.5,41.5c0,22.88,18.62,41.5,41.5,41.5    c22.88,0,41.5-18.62,41.5-41.5C93.5,29.12,74.88,10.5,52,10.5z"
   id="path2"
   style="fill:#bf0000;fill-opacity:1" />
	</g>
	<g
   id="g8">
		<path
   fill="#ED6B21"
   d="M117.47,119.97c-0.64,0-1.28-0.24-1.77-0.73L81.34,84.88c-0.98-0.98-0.98-2.56,0-3.54s2.56-0.98,3.54,0    l34.36,34.36c0.98,0.98,0.98,2.56,0,3.54C118.75,119.72,118.11,119.97,117.47,119.97z"
   id="path6"
   style="fill:#bf0000;fill-opacity:1" />
	</g>
	<g
   id="g12">
		<path
   fill="#ED6B21"
   d="M117.47,122.47c-1.28,0-2.56-0.49-3.54-1.46L92.46,99.54c-1.95-1.95-1.95-5.12,0-7.07    c1.95-1.95,5.12-1.95,7.07,0L121,113.93c1.95,1.95,1.95,5.12,0,7.07C120.03,121.98,118.75,122.47,117.47,122.47z"
   id="path10"
   style="fill:#bf0000;fill-opacity:1" />
	</g>
	<g
   id="g16">
		<path
   fill="#FFFFFF"
   d="M52,77.59c-0.43,0-0.86-0.11-1.25-0.33l-20-11.55c-0.77-0.45-1.25-1.27-1.25-2.17V40.45    c0-0.89,0.48-1.72,1.25-2.17l20-11.55c0.77-0.45,1.73-0.45,2.5,0l20,11.55c0.77,0.45,1.25,1.27,1.25,2.17v23.09    c0,0.89-0.48,1.72-1.25,2.17l-20,11.55C52.86,77.48,52.43,77.59,52,77.59z M34.5,62.1L52,72.21l17.5-10.1V41.9L52,31.79L34.5,41.9    V62.1z M72,63.55L72,63.55L72,63.55z"
   id="path14" />
	</g>
</g>
</svg>
