<?xml version="1.0" encoding="UTF-8" standalone="no"?>
<svg
   viewBox="0 0 24 24"
   width="24px"
   height="24px"
   version="1.1"
   id="svg6"
   sodipodi:docname="search.svg"
   inkscape:version="1.2.2 (b0a8486541, 2022-12-01)"
   xmlns:inkscape="http://www.inkscape.org/namespaces/inkscape"
   xmlns:sodipodi="http://sodipodi.sourceforge.net/DTD/sodipodi-0.dtd"
   xmlns="http://www.w3.org/2000/svg"
   xmlns:svg="http://www.w3.org/2000/svg">
  <defs
     id="defs10" />
  <sodipodi:namedview
     id="namedview8"
     pagecolor="#ffffff"
     bordercolor="#000000"
     borderopacity="0.25"
     inkscape:showpageshadow="2"
     inkscape:pageopacity="0.0"
     inkscape:pagecheckerboard="0"
     inkscape:deskcolor="#d1d1d1"
     showgrid="false"
     inkscape:zoom="30.958333"
     inkscape:cx="12.032302"
     inkscape:cy="11.983849"
     inkscape:window-width="1920"
     inkscape:window-height="1007"
     inkscape:window-x="0"
     inkscape:window-y="0"
     inkscape:window-maximized="1"
     inkscape:current-layer="svg6" />
  <path
     fill="#808080"
     d="M 13.261719 14.867188 L 15.742188 17.347656 C 15.363281 18.070313 15.324219 18.789063 15.722656 19.1875 L 20.25 23.714844 C 20.820313 24.285156 22.0625 23.972656 23.015625 23.015625 C 23.972656 22.058594 24.285156 20.820313 23.714844 20.25 L 19.191406 15.722656 C 18.789063 15.324219 18.070313 15.363281 17.347656 15.738281 L 14.867188 13.261719 Z M 8.5 0 C 3.804688 0 0 3.804688 0 8.5 C 0 13.195313 3.804688 17 8.5 17 C 13.195313 17 17 13.195313 17 8.5 C 17 3.804688 13.195313 0 8.5 0 Z M 8.5 15 C 4.910156 15 2 12.089844 2 8.5 C 2 4.910156 4.910156 2 8.5 2 C 12.089844 2 15 4.910156 15 8.5 C 15 12.089844 12.089844 15 8.5 15 Z"
     id="path2" />
  <path
     fill="#ED6B21"
     d="M 8.5,0 C 3.804688,0 0,3.804688 0,8.5 0,13.195313 3.804688,17 8.5,17 13.195313,17 17,13.195313 17,8.5 17,3.804688 13.195313,0 8.5,0 Z m 0,15 C 4.910156,15 2,12.089844 2,8.5 2,4.910156 4.910156,2 8.5,2 12.089844,2 15,4.910156 15,8.5 15,12.089844 12.089844,15 8.5,15 Z"
     id="path4"
     style="fill:#bf0000;fill-opacity:1" />
</svg>
