<?xml version="1.0" encoding="UTF-8" standalone="no"?>
<!-- Generator: Adobe Illustrator 26.0.1, SVG Export Plug-In . SVG Version: 6.00 Build 0)  -->

<svg
   version="1.0"
   id="Layer_1"
   x="0px"
   y="0px"
   width="16px"
   height="16px"
   viewBox="0 0 16 16"
   enable-background="new 0 0 16 16"
   xml:space="preserve"
   sodipodi:docname="shape_gallery.svg"
   inkscape:version="1.2.2 (b0a8486541, 2022-12-01)"
   xmlns:inkscape="http://www.inkscape.org/namespaces/inkscape"
   xmlns:sodipodi="http://sodipodi.sourceforge.net/DTD/sodipodi-0.dtd"
   xmlns="http://www.w3.org/2000/svg"
   xmlns:svg="http://www.w3.org/2000/svg"><defs
   id="defs14" /><sodipodi:namedview
   id="namedview12"
   pagecolor="#ffffff"
   bordercolor="#000000"
   borderopacity="0.25"
   inkscape:showpageshadow="2"
   inkscape:pageopacity="0.0"
   inkscape:pagecheckerboard="0"
   inkscape:deskcolor="#d1d1d1"
   showgrid="false"
   inkscape:zoom="46.4375"
   inkscape:cx="8"
   inkscape:cy="7.9892328"
   inkscape:window-width="1920"
   inkscape:window-height="1007"
   inkscape:window-x="0"
   inkscape:window-y="0"
   inkscape:window-maximized="1"
   inkscape:current-layer="Layer_1" />
<g
   id="shape_x5F_gallery_x5F_2">
	<path
   fill="#808080"
   d="M11,6.72c0.14,0,0.25,0.11,0.25,0.25V14c0,0.14-0.11,0.25-0.25,0.25H2c-0.14,0-0.25-0.11-0.25-0.25V6.97   c0-0.14,0.11-0.25,0.25-0.25H11 M11,5.97H2c-0.55,0-1,0.45-1,1V14c0,0.55,0.45,1,1,1h9c0.55,0,1-0.45,1-1V6.97   C12,6.42,11.55,5.97,11,5.97L11,5.97z"
   id="path2" />
	<path
   fill="#808080"
   d="M14,2H5C4.45,2,4,2.45,4,3v1h0.75V3c0-0.14,0.11-0.25,0.25-0.25h9c0.14,0,0.25,0.11,0.25,0.25v8   c0,0.14-0.11,0.25-0.25,0.25h-0.5V12H14c0.55,0,1-0.45,1-1V3C15,2.45,14.55,2,14,2z"
   id="path4" />
	<path
   fill="#808080"
   d="M12.5,4h-9c-0.55,0-1,0.45-1,1v0.97h0.75V5c0-0.14,0.11-0.25,0.25-0.25h9c0.14,0,0.25,0.11,0.25,0.25v7.5   c0,0.14-0.11,0.25-0.25,0.25H12v0.75h0.5c0.55,0,1-0.45,1-1V5C13.5,4.45,13.05,4,12.5,4z"
   id="path6" />
	<path
   fill="#ED6B21"
   d="M9.07,11.7V9.3c0-0.18-0.1-0.34-0.25-0.43l-2.07-1.2c-0.15-0.09-0.35-0.09-0.5,0l-2.07,1.2   C4.02,8.96,3.93,9.13,3.93,9.3v2.39c0,0.18,0.1,0.34,0.25,0.43l2.07,1.2c0.15,0.09,0.35,0.09,0.5,0l2.07-1.2   C8.98,12.04,9.07,11.87,9.07,11.7z"
   id="path8"
   style="fill:#bf0000;fill-opacity:1" />
</g>
</svg>
