<?xml version="1.0" encoding="UTF-8" standalone="no"?>
<!-- Generator: Adobe Illustrator 23.0.3, SVG Export Plug-In . SVG Version: 6.00 Build 0)  -->

<svg
   version="1.0"
   id="Layer_1"
   x="0px"
   y="0px"
   viewBox="0 0 16 16"
   enable-background="new 0 0 16 16"
   xml:space="preserve"
   sodipodi:docname="skirt+brim.svg"
   inkscape:version="1.2.2 (b0a8486541, 2022-12-01)"
   xmlns:inkscape="http://www.inkscape.org/namespaces/inkscape"
   xmlns:sodipodi="http://sodipodi.sourceforge.net/DTD/sodipodi-0.dtd"
   xmlns="http://www.w3.org/2000/svg"
   xmlns:svg="http://www.w3.org/2000/svg"><defs
   id="defs16" /><sodipodi:namedview
   id="namedview14"
   pagecolor="#ffffff"
   bordercolor="#000000"
   borderopacity="0.25"
   inkscape:showpageshadow="2"
   inkscape:pageopacity="0.0"
   inkscape:pagecheckerboard="0"
   inkscape:deskcolor="#d1d1d1"
   showgrid="false"
   inkscape:zoom="46.4375"
   inkscape:cx="8"
   inkscape:cy="7.9892328"
   inkscape:window-width="1920"
   inkscape:window-height="1007"
   inkscape:window-x="0"
   inkscape:window-y="0"
   inkscape:window-maximized="1"
   inkscape:current-layer="Layer_1" />
<g
   id="skirt_x2B_brim">
	<g
   id="skirt_x2B_brim_-_box">
		<g
   id="g4">
			<path
   fill="#808080"
   d="M8,3.26L12.12,6v1.17v2.88L8,12.8l-4.12-2.74V7.17V6L8,3.26 M8,2.06L2.88,5.47v1.71v3.41L8,14l5.12-3.41     V7.17V5.47L8,2.06L8,2.06z"
   id="path2" />
		</g>
	</g>
	<g
   id="skirt_x2B_brim_-_box_1_">
		<g
   id="g9">
			<path
   fill="#ED6B21"
   d="M8,1.63l5.5,3.67v1.73v3.73L8,14.43l-5.5-3.67V7.03V5.3L8,1.63 M8,1.03l-6,4v2v4l6,4l6-4v-4v-2L8,1.03     L8,1.03z"
   id="path7"
   style="fill:#bf0000;fill-opacity:1" />
		</g>
	</g>
</g>
</svg>
