<?xml version="1.0" encoding="UTF-8" standalone="no"?>
<!-- Generator: Adobe Illustrator 24.3.0, SVG Export Plug-In . SVG Version: 6.00 Build 0)  -->

<svg
   version="1.0"
   id="Layer_1"
   x="0px"
   y="0px"
   viewBox="0 0 128 128"
   enable-background="new 0 0 128 128"
   xml:space="preserve"
   sodipodi:docname="split_parts.svg"
   inkscape:version="1.2.2 (b0a8486541, 2022-12-01)"
   xmlns:inkscape="http://www.inkscape.org/namespaces/inkscape"
   xmlns:sodipodi="http://sodipodi.sourceforge.net/DTD/sodipodi-0.dtd"
   xmlns="http://www.w3.org/2000/svg"
   xmlns:svg="http://www.w3.org/2000/svg"><defs
   id="defs18" /><sodipodi:namedview
   id="namedview16"
   pagecolor="#ffffff"
   bordercolor="#000000"
   borderopacity="0.25"
   inkscape:showpageshadow="2"
   inkscape:pageopacity="0.0"
   inkscape:pagecheckerboard="0"
   inkscape:deskcolor="#d1d1d1"
   showgrid="false"
   inkscape:zoom="5.8046875"
   inkscape:cx="64"
   inkscape:cy="63.913863"
   inkscape:window-width="1920"
   inkscape:window-height="1007"
   inkscape:window-x="0"
   inkscape:window-y="0"
   inkscape:window-maximized="1"
   inkscape:current-layer="Layer_1" />
<g
   id="split_x5F_parts_1_">
	<g
   id="g4">
		<path
   fill="#FFFFFF"
   d="M32,90.5H8c-1.38,0-2.5-1.12-2.5-2.5V8c0-1.38,1.12-2.5,2.5-2.5h80c1.38,0,2.5,1.12,2.5,2.5v24    c0,1.38-1.12,2.5-2.5,2.5s-2.5-1.12-2.5-2.5V10.5h-75v75H32c1.38,0,2.5,1.12,2.5,2.5S33.38,90.5,32,90.5z"
   id="path2" />
	</g>
	<g
   id="g8">
		<path
   fill="#ED6B21"
   d="M120,122.5H40c-1.38,0-2.5-1.12-2.5-2.5V40c0-1.38,1.12-2.5,2.5-2.5h80c1.38,0,2.5,1.12,2.5,2.5v80    C122.5,121.38,121.38,122.5,120,122.5z M42.5,117.5h75v-75h-75V117.5z"
   id="path6"
   style="fill:#bf0000;fill-opacity:1" />
	</g>
	<g
   id="g12">
		<path
   fill="#ED6B21"
   d="M64,106.5c-1.38,0-2.5-1.12-2.5-2.5V61c0-4.14,3.36-7.5,7.5-7.5h17c6.89,0,12.5,5.61,12.5,12.5v4    c0,6.89-5.61,12.5-12.5,12.5H66.5V104C66.5,105.38,65.38,106.5,64,106.5z M66.5,77.5H86c4.14,0,7.5-3.36,7.5-7.5v-4    c0-4.14-3.36-7.5-7.5-7.5H69c-1.38,0-2.5,1.12-2.5,2.5V77.5z"
   id="path10"
   style="fill:#bf0000;fill-opacity:1" />
	</g>
</g>
</svg>
