<?xml version="1.0" encoding="UTF-8" standalone="no"?>
<!-- Generator: Adobe Illustrator 23.0.3, SVG Export Plug-In . SVG Version: 6.00 Build 0)  -->

<svg
   version="1.0"
   id="Layer_1"
   x="0px"
   y="0px"
   viewBox="0 0 16 16"
   enable-background="new 0 0 16 16"
   xml:space="preserve"
   sodipodi:docname="support_enforcer.svg"
   inkscape:version="1.2.2 (b0a8486541, 2022-12-01)"
   xmlns:inkscape="http://www.inkscape.org/namespaces/inkscape"
   xmlns:sodipodi="http://sodipodi.sourceforge.net/DTD/sodipodi-0.dtd"
   xmlns="http://www.w3.org/2000/svg"
   xmlns:svg="http://www.w3.org/2000/svg"><defs
   id="defs14" /><sodipodi:namedview
   id="namedview12"
   pagecolor="#ffffff"
   bordercolor="#000000"
   borderopacity="0.25"
   inkscape:showpageshadow="2"
   inkscape:pageopacity="0.0"
   inkscape:pagecheckerboard="0"
   inkscape:deskcolor="#d1d1d1"
   showgrid="false"
   inkscape:zoom="46.4375"
   inkscape:cx="8"
   inkscape:cy="7.9892328"
   inkscape:window-width="1920"
   inkscape:window-height="1007"
   inkscape:window-x="0"
   inkscape:window-y="0"
   inkscape:window-maximized="1"
   inkscape:current-layer="Layer_1" />
<g
   id="support_x5F_enfocer">
	<g
   id="g4">
		<path
   fill="#808080"
   d="M8,8.17c-0.4,0-0.8-0.1-1.11-0.31L2.55,4.97C1.95,4.57,1.5,3.72,1.5,3V2c0-0.28,0.22-0.5,0.5-0.5    S2.5,1.72,2.5,2v1c0,0.38,0.29,0.93,0.61,1.14l4.34,2.89c0.29,0.19,0.82,0.19,1.11,0l4.34-2.89C13.21,3.93,13.5,3.38,13.5,3V2    c0-0.28,0.22-0.5,0.5-0.5s0.5,0.22,0.5,0.5v1c0,0.72-0.45,1.57-1.05,1.97L9.11,7.86C8.8,8.07,8.4,8.17,8,8.17z"
   id="path2" />
	</g>
	<g
   id="g8">
		<path
   fill="#ED6B21"
   d="M13,14.5H3c-0.83,0-1.5-0.67-1.5-1.5V7c0-0.45,0.19-0.81,0.51-0.98c0.32-0.17,0.72-0.13,1.1,0.12    l4.34,2.89c0.29,0.19,0.82,0.19,1.11,0l4.34-2.89c0.38-0.25,0.78-0.3,1.1-0.12C14.31,6.19,14.5,6.55,14.5,7v6    C14.5,13.83,13.83,14.5,13,14.5z M2.5,6.94c0,0.02,0,0.04,0,0.06v6c0,0.28,0.22,0.5,0.5,0.5h10c0.28,0,0.5-0.22,0.5-0.5V7    c0-0.02,0-0.04,0-0.06c-0.02,0.01-0.03,0.02-0.05,0.03L9.11,9.86c-0.62,0.41-1.6,0.41-2.22,0L2.55,6.97    C2.54,6.96,2.52,6.95,2.5,6.94z M8.83,9.45L8.83,9.45L8.83,9.45z"
   id="path6"
   style="fill:#bf0000;fill-opacity:1" />
	</g>
</g>
</svg>
