<?xml version="1.0" encoding="UTF-8" standalone="no"?>
<svg
   viewBox="0 0 16 16"
   width="16px"
   height="16px"
   version="1.1"
   id="svg6"
   sodipodi:docname="svg_negative.svg"
   inkscape:version="1.2.2 (b0a8486541, 2022-12-01)"
   xmlns:inkscape="http://www.inkscape.org/namespaces/inkscape"
   xmlns:sodipodi="http://sodipodi.sourceforge.net/DTD/sodipodi-0.dtd"
   xmlns="http://www.w3.org/2000/svg"
   xmlns:svg="http://www.w3.org/2000/svg">
  <defs
     id="defs10" />
  <sodipodi:namedview
     id="namedview8"
     pagecolor="#ffffff"
     bordercolor="#000000"
     borderopacity="0.25"
     inkscape:showpageshadow="2"
     inkscape:pageopacity="0.0"
     inkscape:pagecheckerboard="0"
     inkscape:deskcolor="#d1d1d1"
     showgrid="false"
     inkscape:zoom="46.4375"
     inkscape:cx="8"
     inkscape:cy="7.9892328"
     inkscape:window-width="1920"
     inkscape:window-height="1007"
     inkscape:window-x="0"
     inkscape:window-y="0"
     inkscape:window-maximized="1"
     inkscape:current-layer="svg6" />
  <path
     fill="#ed6b21"
     d="M 1,12 C 0.5,12 0,12 0,12.5 0,13 0.5,13 1,13 H 6 C 6.5,13 7,13 7,12.5 7,12 6.5,12 6,12 Z"
     id="path2"
     style="fill:#bf0000;fill-opacity:1" />
  <path
     fill="#808080"
     d="M 6,0 C 4,0 3,1 3,3 V 8 H 4 V 3 C 4,1.7 4.7,1 6,1 h 7 c 1.3,0 2,0.7 2,2 h 1 C 16,1 15,0 13,0 Z M 6,4 5,5 V 6 L 6,7 H 7 V 8 H 5 V 9 H 7 L 8,8 V 7 L 7,6 H 6 V 5 H 8 V 4 Z m 3,0 v 4 h 1 V 4 Z m 1,4 v 1 h 1 V 8 Z m 1,0 h 1 V 4 H 11 Z M 14.5,4 C 13.5,4 13,4.6 13,5.5 v 2 C 13,8.4 13.7,9 14.5,9 H 16 V 7 H 15 V 8 H 14.5 C 14.3,8 14,7.8 14,7.5 v -2 C 14,5 14.3,5 14.5,5 H 16 V 4 Z m 0.5,6 c 0,1.3 -0.7,2 -2,2 H 8 v 1 h 5 c 2,0 3,-1 3,-3 z"
     id="path4" />
</svg>
