<?xml version="1.0" encoding="UTF-8" standalone="no"?>
<!-- Generator: Adobe Illustrator 24.3.0, SVG Export Plug-In . SVG Version: 6.00 Build 0)  -->

<svg
   version="1.0"
   id="Layer_1"
   x="0px"
   y="0px"
   viewBox="0 0 128 128"
   enable-background="new 0 0 128 128"
   xml:space="preserve"
   sodipodi:docname="undo_toolbar.svg"
   inkscape:version="1.2.2 (b0a8486541, 2022-12-01)"
   xmlns:inkscape="http://www.inkscape.org/namespaces/inkscape"
   xmlns:sodipodi="http://sodipodi.sourceforge.net/DTD/sodipodi-0.dtd"
   xmlns="http://www.w3.org/2000/svg"
   xmlns:svg="http://www.w3.org/2000/svg"><defs
   id="defs14" /><sodipodi:namedview
   id="namedview12"
   pagecolor="#ffffff"
   bordercolor="#000000"
   borderopacity="0.25"
   inkscape:showpageshadow="2"
   inkscape:pageopacity="0.0"
   inkscape:pagecheckerboard="0"
   inkscape:deskcolor="#d1d1d1"
   showgrid="false"
   inkscape:zoom="5.8046875"
   inkscape:cx="63.913863"
   inkscape:cy="63.913863"
   inkscape:window-width="1920"
   inkscape:window-height="1007"
   inkscape:window-x="0"
   inkscape:window-y="0"
   inkscape:window-maximized="1"
   inkscape:current-layer="Layer_1" />
<g
   id="redo">
	<g
   id="g4">
		<path
   fill="#ED6B21"
   d="M36.57,72.21c0.73,0,1.46-0.32,1.95-0.94c0.86-1.08,0.69-2.65-0.39-3.51L12,46.86l26.13-20.9    c1.08-0.86,1.25-2.44,0.39-3.51c-0.86-1.08-2.43-1.25-3.51-0.39L6.44,44.9C5.85,45.38,5.5,46.1,5.5,46.86s0.35,1.48,0.94,1.95    l28.57,22.86C35.47,72.04,36.02,72.21,36.57,72.21z"
   id="path2"
   style="fill:#bf0021;fill-opacity:1" />
	</g>
	<g
   id="g8">
		<path
   fill="#ED6B21"
   d="M48,106.5h43.43c17.13,0,31.07-13.94,31.07-31.07s-13.94-31.07-31.07-31.07H8c-1.38,0-2.5,1.12-2.5,2.5    s1.12,2.5,2.5,2.5h83.43c14.38,0,26.07,11.7,26.07,26.07s-11.7,26.07-26.07,26.07H48c-1.38,0-2.5,1.12-2.5,2.5    S46.62,106.5,48,106.5z"
   id="path6"
   style="fill:#bf0021;fill-opacity:1" />
	</g>
</g>
</svg>
